<svg width="40" height="40" viewBox="0 0 40 40" fill="none" xmlns="http://www.w3.org/2000/svg">
<path d="M25.2175 38.5C32.553 38.5 38.4995 32.5535 38.4995 25.218C38.4995 17.8826 32.553 11.936 25.2175 11.936C17.8821 11.936 11.9355 17.8826 11.9355 25.218C11.9355 32.5535 17.8821 38.5 25.2175 38.5Z" stroke="black" stroke-width="2" stroke-linecap="round" stroke-linejoin="round"/>
<path d="M21.1148 30.294C21.5083 30.7906 22.0152 31.1854 22.5929 31.4454C23.1706 31.7054 23.8023 31.8229 24.4348 31.788H26.4278C27.3085 31.788 28.1531 31.4382 28.7758 30.8155C29.3985 30.1927 29.7483 29.3482 29.7483 28.4675C29.7483 27.5869 29.3985 26.7423 28.7758 26.1196C28.1531 25.4968 27.3085 25.147 26.4278 25.147H24.2688C23.3882 25.147 22.5436 24.7972 21.9209 24.1745C21.2982 23.5517 20.9483 22.7072 20.9483 21.8265C20.9483 20.9459 21.2982 20.1013 21.9209 19.4786C22.5436 18.8558 23.3882 18.506 24.2688 18.506H26.2618C26.8984 18.4337 27.5427 18.5343 28.1269 18.7973C28.7112 19.0602 29.2138 19.4756 29.5818 20M25.2648 16.68V33.282M12.4948 20.692C12.0468 20.2722 11.6901 19.7645 11.447 19.2007C11.2039 18.6369 11.0796 18.029 11.0818 17.415V13.098C11.0795 12.5087 11.1938 11.9247 11.4183 11.3798C11.6427 10.8349 11.9729 10.3398 12.3896 9.92309C12.8064 9.50641 13.3016 9.17638 13.8465 8.95204C14.3915 8.7277 14.9755 8.61349 15.5648 8.61601C16.2306 8.62835 16.8861 8.78284 17.4873 9.06914C18.0885 9.35543 18.6216 9.76691 19.0508 10.276M9.08984 13.43H14.7348M9.08984 16.75H14.7348" stroke="black" stroke-width="2" stroke-linecap="round" stroke-linejoin="round"/>
<path d="M12.0198 27.7741C9.68161 27.277 7.52094 26.158 5.76567 24.5353C4.01041 22.9126 2.72561 20.8462 2.04679 18.5542C1.36797 16.2622 1.3203 13.8294 1.9088 11.5126C2.4973 9.19573 3.70016 7.08064 5.39051 5.3904C7.08085 3.70016 9.19602 2.49743 11.5129 1.90908C13.8298 1.32073 16.2626 1.36855 18.5545 2.04752C20.8465 2.72648 22.9128 4.01141 24.5354 5.76678C26.158 7.52215 27.2768 9.68289 27.7738 12.0211" stroke="black" stroke-width="2" stroke-linecap="round" stroke-linejoin="round"/>
</svg>
